<svg id="Capa_1" enable-background="new 0 0 510 510" height="512" viewBox="0 0 510 510" width="512" xmlns="http://www.w3.org/2000/svg" xmlns:xlink="http://www.w3.org/1999/xlink"><linearGradient id="lg1"><stop offset="0" stop-color="#f8f6fb"/><stop offset="1" stop-color="#efdcfb"/></linearGradient><linearGradient id="SVGID_1_" gradientUnits="userSpaceOnUse" x1="311.527" x2="311.527" xlink:href="#lg1" y1="200.956" y2="239.731"/><linearGradient id="lg2"><stop offset="0" stop-color="#efdcfb" stop-opacity="0"/><stop offset=".2889" stop-color="#c7b6df" stop-opacity=".289"/><stop offset=".5915" stop-color="#a495c7" stop-opacity=".592"/><stop offset=".8395" stop-color="#8e80b7" stop-opacity=".84"/><stop offset="1" stop-color="#8679b2"/></linearGradient><linearGradient id="SVGID_2_" gradientUnits="userSpaceOnUse" x1="316.566" x2="307.69" xlink:href="#lg2" y1="216.371" y2="102.383"/><linearGradient id="SVGID_3_" gradientUnits="userSpaceOnUse" x1="409.478" x2="333.798" xlink:href="#lg2" y1="172.435" y2="164.026"/><linearGradient id="lg3"><stop offset="0" stop-color="#ff7044"/><stop offset="1" stop-color="#f82814"/></linearGradient><linearGradient id="SVGID_4_" gradientUnits="userSpaceOnUse" x1="315.264" x2="315.264" xlink:href="#lg3" y1="91.328" y2="185.384"/><linearGradient id="lg4"><stop offset="0" stop-color="#f82814" stop-opacity="0"/><stop offset="1" stop-color="#c0272d"/></linearGradient><linearGradient id="SVGID_5_" gradientUnits="userSpaceOnUse" x1="305.82" x2="349.733" xlink:href="#lg4" y1="99.264" y2="280.524"/><linearGradient id="SVGID_6_" gradientTransform="matrix(.989 -.148 .148 .989 -49.4 -132.515)" gradientUnits="userSpaceOnUse" x1="228.031" x2="204.462" xlink:href="#lg3" y1="269.892" y2="239.252"/><linearGradient id="SVGID_7_" gradientTransform="matrix(.993 -.115 .115 .993 -35.52 -97.066)" gradientUnits="userSpaceOnUse" x1="277.772" x2="254.203" xlink:href="#lg3" y1="224.335" y2="193.694"/><linearGradient id="SVGID_8_" gradientTransform="matrix(.999 -.054 .054 .999 -15.474 -43.55)" gradientUnits="userSpaceOnUse" x1="323.9" x2="300.33" xlink:href="#lg3" y1="151.983" y2="121.341"/><linearGradient id="SVGID_9_" gradientUnits="userSpaceOnUse" x1="366.229" x2="342.656" xlink:href="#lg3" y1="94.09" y2="63.445"/><linearGradient id="SVGID_10_" gradientUnits="userSpaceOnUse" x1="416.372" x2="392.799" xlink:href="#lg3" y1="100.9" y2="70.256"/><linearGradient id="SVGID_11_" gradientUnits="userSpaceOnUse" x1="391.672" x2="312.254" xlink:href="#lg4" y1="125.987" y2="95.154"/><linearGradient id="lg5"><stop offset="0" stop-color="#534854"/><stop offset="1" stop-color="#342434"/></linearGradient><linearGradient id="SVGID_12_" gradientUnits="userSpaceOnUse" x1="285.677" x2="350.578" xlink:href="#lg5" y1="158.756" y2="158.756"/><linearGradient id="SVGID_13_" gradientUnits="userSpaceOnUse" x1="486.44" x2="405.107" xlink:href="#lg2" y1="249.94" y2="211.274"/><linearGradient id="SVGID_14_" gradientUnits="userSpaceOnUse" x1="251.263" x2="251.263" xlink:href="#lg1" y1="297.201" y2="335.975"/><linearGradient id="SVGID_15_" gradientUnits="userSpaceOnUse" x1="256.302" x2="247.426" xlink:href="#lg2" y1="312.615" y2="198.627"/><linearGradient id="SVGID_16_" gradientUnits="userSpaceOnUse" x1="349.214" x2="273.534" xlink:href="#lg2" y1="268.679" y2="260.27"/><linearGradient id="SVGID_17_" gradientUnits="userSpaceOnUse" x1="255" x2="255" xlink:href="#lg3" y1="187.573" y2="281.628"/><linearGradient id="SVGID_18_" gradientUnits="userSpaceOnUse" x1="245.555" x2="289.469" xlink:href="#lg4" y1="195.509" y2="376.768"/><linearGradient id="SVGID_19_" gradientTransform="matrix(.989 -.148 .148 .989 -49.4 -132.515)" gradientUnits="userSpaceOnUse" x1="154.173" x2="130.603" xlink:href="#lg3" y1="356.14" y2="325.499"/><linearGradient id="SVGID_20_" gradientTransform="matrix(.993 -.115 .115 .993 -35.52 -97.066)" gradientUnits="userSpaceOnUse" x1="206.851" x2="183.281" xlink:href="#lg3" y1="313.015" y2="282.375"/><linearGradient id="SVGID_21_" gradientTransform="matrix(.999 -.054 .054 .999 -15.474 -43.55)" gradientUnits="userSpaceOnUse" x1="258.488" x2="234.917" xlink:href="#lg3" y1="244.808" y2="214.166"/><linearGradient id="SVGID_22_" gradientUnits="userSpaceOnUse" x1="305.965" x2="282.392" xlink:href="#lg3" y1="190.334" y2="159.689"/><linearGradient id="SVGID_23_" gradientUnits="userSpaceOnUse" x1="356.107" x2="332.535" xlink:href="#lg3" y1="197.145" y2="166.5"/><linearGradient id="SVGID_24_" gradientUnits="userSpaceOnUse" x1="331.408" x2="251.99" xlink:href="#lg4" y1="222.231" y2="191.398"/><linearGradient id="SVGID_25_" gradientUnits="userSpaceOnUse" x1="225.413" x2="290.314" xlink:href="#lg5" y1="255" y2="255"/><linearGradient id="SVGID_26_" gradientUnits="userSpaceOnUse" x1="426.05" x2="344.717" xlink:href="#lg2" y1="346.217" y2="307.55"/><linearGradient id="SVGID_27_" gradientUnits="userSpaceOnUse" x1="190.998" x2="190.998" xlink:href="#lg1" y1="393.445" y2="432.219"/><linearGradient id="SVGID_28_" gradientUnits="userSpaceOnUse" x1="196.038" x2="187.162" xlink:href="#lg2" y1="408.86" y2="294.871"/><linearGradient id="SVGID_29_" gradientUnits="userSpaceOnUse" x1="288.95" x2="213.269" xlink:href="#lg2" y1="364.923" y2="356.514"/><linearGradient id="SVGID_30_" gradientUnits="userSpaceOnUse" x1="194.736" x2="194.736" xlink:href="#lg3" y1="283.817" y2="377.873"/><linearGradient id="SVGID_31_" gradientUnits="userSpaceOnUse" x1="185.291" x2="229.204" xlink:href="#lg4" y1="291.753" y2="473.012"/><linearGradient id="SVGID_32_" gradientTransform="matrix(.989 -.148 .148 .989 -49.4 -132.515)" gradientUnits="userSpaceOnUse" x1="80.314" x2="56.745" xlink:href="#lg3" y1="442.387" y2="411.747"/><linearGradient id="SVGID_33_" gradientTransform="matrix(.993 -.115 .115 .993 -35.52 -97.066)" gradientUnits="userSpaceOnUse" x1="135.929" x2="112.36" xlink:href="#lg3" y1="401.696" y2="371.056"/><linearGradient id="SVGID_34_" gradientTransform="matrix(.999 -.054 .054 .999 -15.474 -43.55)" gradientUnits="userSpaceOnUse" x1="193.076" x2="169.505" xlink:href="#lg3" y1="337.633" y2="306.991"/><linearGradient id="SVGID_35_" gradientUnits="userSpaceOnUse" x1="245.701" x2="222.128" xlink:href="#lg3" y1="286.578" y2="255.934"/><linearGradient id="SVGID_36_" gradientUnits="userSpaceOnUse" x1="295.843" x2="272.27" xlink:href="#lg3" y1="293.389" y2="262.744"/><linearGradient id="SVGID_37_" gradientUnits="userSpaceOnUse" x1="271.143" x2="191.726" xlink:href="#lg4" y1="318.475" y2="287.642"/><linearGradient id="SVGID_38_" gradientUnits="userSpaceOnUse" x1="165.149" x2="230.049" xlink:href="#lg5" y1="351.244" y2="351.244"/><g><g><path d="m436.26 255.147h-249.466c-26.575 0-48.118-21.543-48.118-48.118v-74.746c0-26.575 21.543-48.118 48.118-48.118h249.466c26.575 0 48.118 21.543 48.118 48.118v74.746c0 26.575-21.543 48.118-48.118 48.118z" fill="url(#SVGID_1_)"/><path d="m436.26 84.165h-249.466c-26.575 0-48.118 21.543-48.118 48.118v40.643l82.221 82.221h215.363c26.575 0 48.118-21.543 48.118-48.118v-74.746c0-26.575-21.543-48.118-48.118-48.118z" fill="url(#SVGID_2_)" opacity=".5"/><path d="m436.26 84.165h-106.28v170.982h106.28c26.575 0 48.118-21.543 48.118-48.118v-74.746c0-26.575-21.543-48.118-48.118-48.118z" fill="url(#SVGID_3_)" opacity=".5"/><path d="m126.412 163.58c3.499 7.161 11.808 10.54 19.319 7.872 45.497-16.16 104.742-25.933 169.533-25.933s124.037 9.773 169.533 25.933c7.511 2.668 15.82-.711 19.319-7.872 15.53-31.784-.927-70.081-34.773-80.369-43.105-13.102-96.395-20.847-154.079-20.847-57.683 0-110.974 7.745-154.079 20.847-33.846 10.288-50.303 48.584-34.773 80.369z" fill="url(#SVGID_4_)"/><path d="m497.251 102.062c1.021 10.257-.684 20.951-5.592 30.997-3.499 7.161-11.808 10.54-19.319 7.872-45.497-16.16-104.742-25.933-169.533-25.933s-124.037 9.773-169.533 25.933c-4.329 1.538-8.918 1.057-12.704-.989.23 7.936 2.098 15.976 5.842 23.638 3.499 7.161 11.808 10.54 19.319 7.872 45.497-16.16 104.742-25.933 169.533-25.933s124.037 9.773 169.533 25.933c7.511 2.668 15.82-.711 19.319-7.872 10.251-20.98 6.559-44.792-6.865-61.518z" fill="url(#SVGID_5_)"/><g><path d="m185.634 123.377c-1.048.157-2.15-.044-3.066-.642-1.861-1.214-2.253-3.604-.875-5.34.871-1.097 21.761-27.061 59.642-43.224 2.119-.906 4.598-.087 5.53 1.83.933 1.916-.032 4.203-2.154 5.109-35.752 15.256-56.072 40.43-56.273 40.683-.702.88-1.724 1.422-2.804 1.584z" fill="url(#SVGID_6_)"/><path d="m234.961 115.598c-1.052.122-2.147-.116-3.043-.745-1.819-1.276-2.131-3.677-.695-5.366.907-1.067 22.657-26.315 61.059-41.198 2.148-.835 4.598.067 5.465 2.014.868 1.946-.173 4.2-2.324 5.034-36.244 14.047-57.398 38.525-57.607 38.77-.731.858-1.77 1.366-2.855 1.491z" fill="url(#SVGID_7_)"/><path d="m283.713 110.375c-1.058.058-2.136-.246-2.992-.928-1.738-1.384-1.904-3.8-.368-5.399.97-1.01 24.213-24.891 63.447-37.416 2.195-.702 4.585.346 5.333 2.342.748 1.995-.428 4.182-2.626 4.883-37.03 11.821-59.63 34.97-59.854 35.202-.781.813-1.85 1.257-2.94 1.316z" fill="url(#SVGID_8_)"/><path d="m332.704 112.082c-1.059 0-2.12-.362-2.937-1.089-1.66-1.477-1.694-3.898-.074-5.411 1.024-.956 25.532-23.536 65.39-33.907 2.23-.582 4.56.595 5.198 2.629.638 2.033-.655 4.152-2.887 4.733-37.619 9.788-61.445 31.672-61.682 31.892-.824.768-1.916 1.153-3.008 1.153z" fill="url(#SVGID_9_)"/><path d="m382.846 118.892c-1.059 0-2.12-.362-2.937-1.089-1.66-1.477-1.694-3.898-.074-5.411 1.024-.956 25.532-23.536 65.39-33.907 2.23-.582 4.56.595 5.198 2.629.638 2.033-.655 4.152-2.887 4.733-37.619 9.788-61.445 31.672-61.682 31.892-.824.768-1.915 1.153-3.008 1.153z" fill="url(#SVGID_10_)"/></g><path d="m329.98 145.695c38.379.883 74.529 5.197 106.677 12.212l-94.996-94.996c-3.869-.161-7.764-.284-11.681-.374z" fill="url(#SVGID_11_)"/><path d="m292.526 257.172h45.477c2.277 0 4.123-1.846 4.123-4.123v-188.165c0-2.215-1.747-4.043-3.96-4.125-7.546-.277-15.184-.419-22.902-.419-7.717 0-15.355.142-22.902.419-2.214.081-3.96 1.91-3.96 4.125v188.165c0 2.277 1.846 4.123 4.124 4.123z" fill="url(#SVGID_12_)"/></g><path d="m432.057 255.115h4.329c15.738 0 29.71-7.558 38.489-19.24l-42.818-42.818z" fill="url(#SVGID_13_)" opacity=".5"/><g><path d="m375.996 351.392h-249.466c-26.575 0-48.118-21.543-48.118-48.118v-74.746c0-26.575 21.543-48.118 48.118-48.118h249.466c26.575 0 48.118 21.543 48.118 48.118v74.746c0 26.574-21.544 48.118-48.118 48.118z" fill="url(#SVGID_14_)"/><path d="m375.996 180.409h-249.466c-26.575 0-48.118 21.543-48.118 48.118v40.643l82.221 82.221h215.363c26.575 0 48.118-21.543 48.118-48.118v-74.746c0-26.575-21.544-48.118-48.118-48.118z" fill="url(#SVGID_15_)" opacity=".5"/><path d="m375.996 180.409h-106.28v170.982h106.28c26.575 0 48.118-21.543 48.118-48.118v-74.746c0-26.575-21.544-48.118-48.118-48.118z" fill="url(#SVGID_16_)" opacity=".5"/><path d="m66.148 259.824c3.499 7.161 11.808 10.54 19.319 7.872 45.496-16.16 104.742-25.933 169.533-25.933s124.037 9.773 169.533 25.933c7.511 2.668 15.82-.711 19.319-7.872 15.53-31.785-.927-70.081-34.773-80.369-43.104-13.102-96.395-20.847-154.079-20.847s-110.974 7.745-154.079 20.847c-33.846 10.289-50.304 48.585-34.773 80.369z" fill="url(#SVGID_17_)"/><path d="m436.987 198.306c1.021 10.257-.684 20.951-5.592 30.997-3.499 7.161-11.808 10.54-19.319 7.872-45.496-16.16-104.741-25.933-169.533-25.933s-124.037 9.773-169.533 25.933c-4.329 1.537-8.918 1.057-12.704-.989.23 7.936 2.098 15.976 5.842 23.638 3.499 7.161 11.808 10.54 19.319 7.872 45.496-16.16 104.742-25.933 169.533-25.933s124.037 9.773 169.533 25.933c7.511 2.668 15.82-.711 19.319-7.872 10.251-20.98 6.559-44.791-6.865-61.518z" fill="url(#SVGID_18_)"/><g><path d="m125.369 219.621c-1.048.157-2.15-.044-3.066-.642-1.861-1.214-2.253-3.604-.875-5.34.871-1.097 21.761-27.061 59.642-43.224 2.119-.906 4.598-.087 5.53 1.83.933 1.916-.032 4.203-2.154 5.109-35.752 15.256-56.072 40.43-56.273 40.683-.701.88-1.723 1.422-2.804 1.584z" fill="url(#SVGID_19_)"/><path d="m174.696 211.843c-1.052.122-2.147-.116-3.043-.744-1.819-1.276-2.131-3.677-.695-5.366.907-1.067 22.657-26.315 61.059-41.198 2.148-.834 4.598.067 5.465 2.014.868 1.946-.173 4.2-2.324 5.034-36.244 14.047-57.398 38.525-57.607 38.77-.73.856-1.77 1.364-2.855 1.49z" fill="url(#SVGID_20_)"/><path d="m223.448 206.62c-1.058.058-2.136-.246-2.992-.928-1.738-1.384-1.904-3.8-.368-5.399.97-1.01 24.213-24.891 63.447-37.416 2.195-.702 4.586.346 5.333 2.342.748 1.995-.428 4.182-2.625 4.883-37.03 11.821-59.63 34.97-59.854 35.202-.781.812-1.85 1.256-2.941 1.316z" fill="url(#SVGID_21_)"/><path d="m272.44 208.326c-1.059 0-2.12-.362-2.937-1.089-1.66-1.477-1.694-3.898-.074-5.411 1.024-.956 25.532-23.536 65.39-33.907 2.23-.582 4.56.595 5.198 2.629.638 2.033-.655 4.152-2.887 4.733-37.619 9.788-61.445 31.672-61.682 31.892-.825.768-1.916 1.153-3.008 1.153z" fill="url(#SVGID_22_)"/><path d="m322.582 215.137c-1.059 0-2.12-.362-2.937-1.089-1.66-1.477-1.694-3.898-.074-5.411 1.024-.956 25.532-23.536 65.39-33.907 2.23-.582 4.56.595 5.198 2.629.638 2.033-.655 4.152-2.887 4.733-37.619 9.788-61.445 31.672-61.682 31.892-.824.768-1.916 1.153-3.008 1.153z" fill="url(#SVGID_23_)"/></g><path d="m269.716 241.939c38.379.883 74.528 5.197 106.677 12.212l-94.996-94.996c-3.869-.161-7.764-.283-11.681-.374z" fill="url(#SVGID_24_)"/><path d="m232.261 353.416h45.477c2.277 0 4.124-1.846 4.124-4.123v-188.165c0-2.215-1.747-4.043-3.96-4.124-7.546-.277-15.184-.419-22.902-.419s-15.356.142-22.902.419c-2.213.081-3.96 1.91-3.96 4.124v188.165c0 2.277 1.846 4.123 4.123 4.123z" fill="url(#SVGID_25_)"/></g><path d="m371.667 351.392h4.329c15.738 0 29.71-7.558 38.489-19.24l-42.818-42.818z" fill="url(#SVGID_26_)" opacity=".5"/><g><path d="m315.731 447.636h-249.466c-26.575 0-48.118-21.543-48.118-48.118v-74.746c0-26.575 21.543-48.118 48.118-48.118h249.466c26.575 0 48.118 21.543 48.118 48.118v74.746c0 26.575-21.543 48.118-48.118 48.118z" fill="url(#SVGID_27_)"/><path d="m315.731 276.654h-249.466c-26.575 0-48.118 21.543-48.118 48.118v40.643l82.221 82.221h215.363c26.575 0 48.118-21.543 48.118-48.118v-74.746c0-26.575-21.543-48.118-48.118-48.118z" fill="url(#SVGID_28_)" opacity=".5"/><path d="m315.731 276.654h-106.28v170.982h106.28c26.575 0 48.118-21.543 48.118-48.118v-74.746c0-26.575-21.543-48.118-48.118-48.118z" fill="url(#SVGID_29_)" opacity=".5"/><path d="m5.884 356.069c3.499 7.161 11.808 10.54 19.319 7.872 45.496-16.16 104.741-25.933 169.533-25.933s124.037 9.773 169.533 25.933c7.511 2.668 15.82-.711 19.319-7.872 15.53-31.784-.927-70.081-34.773-80.369-43.104-13.102-96.395-20.847-154.079-20.847-57.683 0-110.974 7.745-154.079 20.847-33.847 10.288-50.304 48.584-34.773 80.369z" fill="url(#SVGID_30_)"/><path d="m376.723 294.55c1.021 10.257-.684 20.951-5.592 30.997-3.499 7.161-11.808 10.54-19.319 7.872-45.496-16.16-104.741-25.933-169.533-25.933s-124.037 9.773-169.533 25.933c-4.329 1.538-8.918 1.057-12.704-.989.23 7.936 2.098 15.976 5.842 23.638 3.499 7.161 11.808 10.54 19.319 7.872 45.496-16.16 104.742-25.933 169.533-25.933s124.037 9.773 169.533 25.933c7.511 2.668 15.82-.711 19.319-7.872 10.251-20.979 6.559-44.791-6.865-61.518z" fill="url(#SVGID_31_)"/><g><path d="m65.105 315.866c-1.048.157-2.15-.044-3.066-.642-1.861-1.214-2.253-3.604-.875-5.34.871-1.097 21.761-27.061 59.642-43.224 2.119-.906 4.598-.087 5.53 1.83.933 1.916-.032 4.204-2.154 5.109-35.752 15.256-56.072 40.43-56.273 40.683-.702.879-1.724 1.422-2.804 1.584z" fill="url(#SVGID_32_)"/><path d="m114.432 308.087c-1.052.122-2.147-.116-3.043-.745-1.819-1.276-2.131-3.677-.695-5.366.907-1.067 22.657-26.315 61.059-41.198 2.148-.835 4.598.067 5.465 2.014.868 1.946-.173 4.2-2.324 5.034-36.244 14.047-57.398 38.525-57.607 38.77-.73.858-1.77 1.366-2.855 1.491z" fill="url(#SVGID_33_)"/><path d="m163.184 302.864c-1.058.058-2.136-.246-2.992-.928-1.738-1.384-1.904-3.8-.368-5.399.97-1.01 24.213-24.891 63.447-37.416 2.195-.703 4.586.346 5.333 2.343.748 1.995-.428 4.182-2.625 4.883-37.03 11.821-59.63 34.97-59.854 35.202-.782.812-1.85 1.256-2.941 1.315z" fill="url(#SVGID_34_)"/><path d="m212.176 304.57c-1.059 0-2.119-.362-2.937-1.089-1.66-1.476-1.694-3.898-.074-5.411 1.024-.956 25.532-23.536 65.39-33.907 2.23-.582 4.56.595 5.198 2.629.638 2.033-.655 4.152-2.887 4.733-37.619 9.788-61.445 31.672-61.682 31.892-.825.768-1.916 1.153-3.008 1.153z" fill="url(#SVGID_35_)"/><path d="m262.318 311.381c-1.059 0-2.12-.362-2.937-1.089-1.66-1.477-1.694-3.898-.074-5.411 1.024-.956 25.532-23.536 65.39-33.907 2.23-.582 4.56.595 5.198 2.629.638 2.033-.655 4.152-2.887 4.733-37.619 9.788-61.445 31.672-61.682 31.892-.825.768-1.916 1.153-3.008 1.153z" fill="url(#SVGID_36_)"/></g><path d="m209.451 338.184c38.379.883 74.528 5.197 106.677 12.212l-94.996-94.996c-3.869-.161-7.764-.284-11.681-.374z" fill="url(#SVGID_37_)"/><path d="m171.997 449.66h45.477c2.277 0 4.123-1.846 4.123-4.123v-188.165c0-2.215-1.747-4.043-3.96-4.125-7.546-.277-15.184-.419-22.902-.419-7.717 0-15.356.142-22.902.419-2.214.081-3.96 1.91-3.96 4.125v188.165c.001 2.277 1.847 4.123 4.124 4.123z" fill="url(#SVGID_38_)"/></g></g></svg>